<svg width="123" height="120" viewBox="0 0 123 120" fill="none" xmlns="http://www.w3.org/2000/svg">
<path d="M5.32934 73.4756L1.91406 77.5H121.828L118.033 73.0732H113.48L100.198 58.1829L94.506 63.8171L71.0298 28.6453L70.5991 28L52.0048 49.3293L42.1384 46.9146L36.8258 53.3537L29.9952 50.5366L9.12409 73.4756H5.32934Z" fill="black" stroke="black"/>
<path d="M60.385 35.694L60.3849 35.6939L60.3761 35.7031L57.6074 38.597C56.8556 38.3844 56.1597 37.9795 55.5822 37.4128C54.9365 36.7793 54.4636 35.9677 54.2179 35.0643C53.9722 34.1607 53.9639 33.2026 54.1942 32.2943C54.4244 31.3861 54.8835 30.5654 55.5183 29.9193C56.153 29.2734 56.9389 28.8268 57.7897 28.6238C58.6403 28.4208 59.5269 28.4681 60.3548 28.7611C61.1831 29.0542 61.9239 29.5831 62.4952 30.2948C63.0158 30.9432 63.3769 31.7203 63.5452 32.5556L60.385 35.694Z" fill="black" stroke="black"/>
<path d="M11.7773 73.8784H30.3716L36.4432 63.415L28.4742 65.4272L31.1306 68.6467L18.6079 70.2564L29.6127 56.9759L39.0995 56.1711L29.6127 53.354L11.7773 73.8784Z" fill="white"/>
<path d="M82.3597 53.354L81.6008 75.0857L78.9444 65.4272L75.5292 68.6467L72.8728 65.0247L67.1807 73.8784L73.6318 51.3418L75.5292 61.4028L82.3597 53.354Z" fill="white"/>
<path d="M33.7869 73.8784L40.9969 63.415L50.4838 61.4028L42.1353 65.0247L40.238 68.6467L45.5506 67.4394L38.3406 72.2686L42.5148 73.8784H33.7869Z" fill="white"/>
<path d="M54.658 61.4028L44.7917 73.8784L52.7607 69.4516L54.658 73.8784V61.4028Z" fill="white"/>
<path d="M59.5912 61.4028L56.5554 73.8784L60.7296 69.4516L63.7654 73.8784L62.2475 67.0369L67.9397 58.9881L59.5912 61.4028Z" fill="white"/>
<path d="M85.016 59.793L94.5029 75.0857L86.9134 70.2564L83.8776 75.0857L85.016 59.793Z" fill="white"/>
<path d="M100.195 61.4028L93.744 67.4394L91.8466 69.4516H94.5029L97.9182 75.0857L97.1592 67.4394L100.195 61.4028Z" fill="white"/>
<path d="M99.4361 67.4394L103.231 63.415L102.472 69.4516L105.128 70.2564L103.231 72.2686L110.061 73.8784L99.4361 75.0857V67.4394Z" fill="white"/>
<path d="M11.7773 73.8784H30.3716L36.4432 63.415L28.4742 65.4272L31.1306 68.6467L18.6079 70.2564L29.6127 56.9759L39.0995 56.1711L29.6127 53.354L11.7773 73.8784Z" stroke="white" stroke-width="0.25"/>
<path d="M82.3597 53.354L81.6008 75.0857L78.9444 65.4272L75.5292 68.6467L72.8728 65.0247L67.1807 73.8784L73.6318 51.3418L75.5292 61.4028L82.3597 53.354Z" stroke="white" stroke-width="0.25"/>
<path d="M33.7869 73.8784L40.9969 63.415L50.4838 61.4028L42.1353 65.0247L40.238 68.6467L45.5506 67.4394L38.3406 72.2686L42.5148 73.8784H33.7869Z" stroke="white" stroke-width="0.25"/>
<path d="M54.658 61.4028L44.7917 73.8784L52.7607 69.4516L54.658 73.8784V61.4028Z" stroke="white" stroke-width="0.25"/>
<path d="M59.5912 61.4028L56.5554 73.8784L60.7296 69.4516L63.7654 73.8784L62.2475 67.0369L67.9397 58.9881L59.5912 61.4028Z" stroke="white" stroke-width="0.25"/>
<path d="M85.016 59.793L94.5029 75.0857L86.9134 70.2564L83.8776 75.0857L85.016 59.793Z" stroke="white" stroke-width="0.25"/>
<path d="M100.195 61.4028L93.744 67.4394L91.8466 69.4516H94.5029L97.9182 75.0857L97.1592 67.4394L100.195 61.4028Z" stroke="white" stroke-width="0.25"/>
<path d="M99.4361 67.4394L103.231 63.415L102.472 69.4516L105.128 70.2564L103.231 72.2686L110.061 73.8784L99.4361 75.0857V67.4394Z" stroke="white" stroke-width="0.25"/>
</svg>
